<svg xmlns="http://www.w3.org/2000/svg" width="256" height="256" viewBox="0 0 100 100"><rect width="100" height="100" rx="50" fill="#ff6600"></rect><path fill="#fff" d="M52.61 51.24Q58.22 52.19 61.54 53.14Q64.87 54.09 67.29 56.37Q69.71 58.65 69.71 62.83L69.71 62.83Q69.71 67.96 66.44 72.42Q63.16 76.89 57.60 79.55Q52.04 82.21 45.58 82.21L45.58 82.21Q38.55 82.21 34.09 79.17Q29.62 76.13 29.62 71.28L29.62 71.28Q29.62 68.05 31.71 64.63Q33.80 61.21 39.50 57.13L39.50 57.13Q36.65 56.27 35.08 54.66Q33.52 53.04 33.52 50.29L33.52 50.29Q33.52 47.91 35.37 45.39Q37.22 42.88 41.12 40.69L41.12 40.69Q36.94 39.27 34.66 36.32Q32.38 33.38 32.38 29.96L32.38 29.96Q32.38 26.16 34.85 23.50Q37.32 20.84 41.12 19.46Q44.92 18.08 48.72 18.08L48.72 18.08Q55.08 18.08 59.26 21.22L59.26 21.22Q61.83 19.51 64.30 18.65Q66.77 17.80 69.62 17.80L69.62 17.80Q70.38 17.80 70.38 20.46L70.38 20.46Q70.38 21.79 70.00 23.40Q69.62 25.02 69.33 24.73L69.33 24.73Q65.34 23.12 62.21 23.12L62.21 23.12L61.45 23.12Q63.92 26.06 63.92 29.77L63.92 29.77Q63.92 33.38 61.49 36.08Q59.07 38.79 55.27 40.22Q51.47 41.64 47.48 41.64L47.48 41.64Q44.92 41.64 42.64 41.07L42.64 41.07Q40.74 42.59 40.74 44.97L40.74 44.97Q40.74 47.06 42.30 48.20Q43.87 49.34 46.15 49.91Q48.43 50.48 52.61 51.24L52.61 51.24ZM45.58 19.89Q41.59 19.89 41.59 27.39L41.59 27.39Q41.59 32.33 43.97 36.13Q46.34 39.93 50.05 39.93L50.05 39.93Q51.85 39.93 53.23 38.03Q54.61 36.13 54.61 32.05L54.61 32.05Q54.61 26.92 51.95 23.40Q49.29 19.89 45.58 19.89L45.58 19.89ZM50.62 79.17Q55.56 79.17 58.64 76.27Q61.73 73.37 61.73 68.53L61.73 68.53Q61.73 64.92 59.69 62.97Q57.65 61.02 54.75 60.21Q51.85 59.41 46.82 58.65L46.82 58.65L41.69 57.79Q39.03 60.93 39.03 66.72L39.03 66.72Q39.03 72.71 42.26 75.94Q45.49 79.17 50.62 79.17L50.62 79.17Z"></path></svg>